HIERARCHY
ROOT Hips
{
  OFFSET 40.9192 92.6879 18.85
  CHANNELS 6 Xposition Yposition Zposition Zrotation Xrotation Yrotation
  JOINT LeftUpLeg
  {
    OFFSET 8.64259 1.95398 -2.38835
    CHANNELS 3 Zrotation Xrotation Yrotation
    JOINT LeftLeg
    {
      OFFSET 43.7702 0 0
      CHANNELS 3 Zrotation Xrotation Yrotation
      JOINT LeftFoot
      {
        OFFSET 40.6238 0 0
        CHANNELS 3 Zrotation Xrotation Yrotation
        JOINT LeftToeBase
        {
          OFFSET 12.7242 0 0
          CHANNELS 3 Zrotation Xrotation Yrotation
          End Site
          {
            OFFSET 0 0 0
          }
        }
      }
    }
  }
  JOINT RightUpLeg
  {
    OFFSET -8.2249 1.95398 -2.59336
    CHANNELS 3 Zrotation Xrotation Yrotation
    JOINT RightLeg
    {
      OFFSET 43.5653 0 0
      CHANNELS 3 Zrotation Xrotation Yrotation
      JOINT RightFoot
      {
        OFFSET 40.6238 0 0
        CHANNELS 3 Zrotation Xrotation Yrotation
        JOINT RightToeBase
        {
          OFFSET 12.7242 0 0
          CHANNELS 3 Zrotation Xrotation Yrotation
          End Site
          {
            OFFSET 0 0 0
          }
        }
      }
    }
  }
  JOINT Spine
  {
    OFFSET 0.165834 0.87714 6.61349
    CHANNELS 3 Zrotation Xrotation Yrotation
    JOINT Spine1
    {
      OFFSET 7.38963 1.71661e-005 0
      CHANNELS 3 Zrotation Xrotation Yrotation
      JOINT Spine2
      {
        OFFSET 11.9445 1.14441e-005 0
        CHANNELS 3 Zrotation Xrotation Yrotation
        JOINT Spine3
        {
          OFFSET 14.7254 4.19617e-005 0
          CHANNELS 3 Zrotation Xrotation Yrotation
          JOINT Spine4
          {
            OFFSET 10.9679 0 0
            CHANNELS 3 Zrotation Xrotation Yrotation
            JOINT RightShoulder
            {
              OFFSET 2.46616 -1.6653 3.69651
              CHANNELS 3 Zrotation Xrotation Yrotation
              JOINT RightArm
              {
                OFFSET 13.0012 0 0
                CHANNELS 3 Zrotation Xrotation Yrotation
                JOINT RightForeArm
                {
                  OFFSET 28.7848 1.52588e-005 0
                  CHANNELS 3 Zrotation Xrotation Yrotation
                  JOINT RightHand
                  {
                    OFFSET 26.5688 1.52588e-005 0
                    CHANNELS 3 Zrotation Xrotation Yrotation
                    End Site
                    {
                      OFFSET 0 0 0
                    }
                  }
                }
              }
            }
            JOINT LeftShoulder
            {
              OFFSET 2.38034 -1.29275 -3.7523
              CHANNELS 3 Zrotation Xrotation Yrotation
              JOINT LeftArm
              {
                OFFSET 16.3182 6.10351e-005 0
                CHANNELS 3 Zrotation Xrotation Yrotation
                JOINT LeftForeArm
                {
                  OFFSET 27.0901 0 0
                  CHANNELS 3 Zrotation Xrotation Yrotation
                  JOINT LeftHand
                  {
                    OFFSET 24.5451 1.52588e-005 0
                    CHANNELS 3 Zrotation Xrotation Yrotation
                    End Site
                    {
                      OFFSET 0 0 0
                    }
                  }
                }
              }
            }
            JOINT Neck
            {
              OFFSET 5.0226 -0.0266342 0
              CHANNELS 3 Zrotation Xrotation Yrotation
              JOINT Head
              {
                OFFSET 6.69363 2.86102e-005 0
                CHANNELS 3 Zrotation Xrotation Yrotation
                End Site
                {
                  OFFSET 0 0 0
                }
              }
            }
          }
        }
      }
    }
  }
}
MOTION
Frames:	12
Frame Time:	0.0416667
-286.918 86.134 -283.392 39.9918 2.32348 72.1632 -157.927 30.8981 90.1217 -19.7004 -29.7364 -35.5991 18.7852 -40.1864 -13.9882 175.317 -80.5342 -111.638 -141.701 62.6584 78.2578 88.3858 32.1493 -113.777 38.5808 27.6966 3.09148 53.7856 -19.1601 -101.559 15.0267 4.42097 -82.532 17.3725 33.3885 9.19909 6.17443 33.7558 7.54241 -19.1713 28.9964 19.5513 0.841381 28.9964 19.5513 87.2246 13.6938 -170.485 127.554 4.62499 -15.7909 169.664 -35.2505 -99.2614 -11.134 1.06835 -54.8829 -149.746 -20.6786 -20.4498 -71.0996 59.7216 42.1733 125.835 24.6743 -162.033 -44.0795 12.461 -36.5707 38.5043 65.1661 -106.145 -97.0759 27.0403 85.1076 
-287.187 85.9279 -283.565 40.0232 2.37635 72.116 -159.034 31.6172 91.2659 -21.3409 -29.2235 -37.0483 19.1085 -39.8014 -14.6826 -174.405 -78.561 -101.787 -141.331 62.5678 78.0568 93.422 29.1153 -115.795 37.1339 26.1946 1.24082 54.0591 -18.1421 -97.2907 14.9271 4.38716 -82.5357 17.4434 33.1901 9.19748 6.23848 33.5576 7.55323 -19.0634 28.8102 19.473 0.949272 28.8102 19.473 88.7857 15.425 -171.057 127.572 3.09916 -15.7413 172.177 -33.5689 -99.1009 -8.33353 -0.582431 -55.1167 -150.317 -21.2203 -20.5104 -71.2925 59.9986 43.3522 124.29 28.3671 -160.344 -45.9622 13.4232 -37.3775 40.6111 66.4064 -108.153 -95.881 28.1786 88.2638 
-288.078 85.1932 -284.163 40.2116 2.49618 71.9848 -159.75 34.2828 93.3462 -26.9431 -25.3756 -40.3042 20.1929 -38.3354 -17.5132 -152.001 -73.0644 -82.367 -140.406 62.2266 77.1372 103.998 22.2444 -119.014 36.4114 22.3047 -4.43993 54.6679 -15.8181 -87.2247 14.8393 4.3177 -82.5296 17.5944 33.0196 9.1802 6.38372 33.3866 7.54654 -18.8827 28.6546 19.3917 1.12994 28.6546 19.3917 91.0804 17.7473 -171.278 126.779 1.52476 -14.2599 -178.38 -28.1426 -96.9486 -1.75305 -4.2665 -53.5607 -149.546 -20.8159 -20.1452 -70.0107 58.7418 42.285 123.505 32.0682 -159.687 -45.9532 13.349 -37.2087 43.1288 66.0978 -109.811 -96.3095 28.0051 89.2889 
-289.529 83.8741 -285.097 40.7084 2.61411 71.7691 -159.992 43.0034 91.7707 -39.0021 -19.3723 -33.9029 19.4611 -37.928 -29.596 -133.61 -61.5461 -69.8312 -139.092 62.0035 75.3581 103.426 20.7722 -118.445 47.9423 27.9171 -16.4811 54.7059 -12.9687 -76.4442 14.7077 4.15293 -82.6094 17.9946 32.7173 8.91358 6.7754 33.0731 7.29798 -18.457 28.4458 19.0355 1.55562 28.4458 19.0355 94.4373 21.0105 -171.461 124.709 -1.98326 -11.4583 -164.01 -21.5062 -94.3565 6.66292 -8.67975 -51.8408 -150.837 -21.5116 -20.7426 -67.9049 55.8195 43.0101 122.241 37.7315 -159.14 -46.2463 12.8407 -35.8384 45.7495 65.9995 -111.909 -96.9717 27.3286 90.463 
-291.41 82.1824 -286.237 41.6752 2.65158 71.4636 -160.006 52.2298 83.3216 -47.9984 -15.1972 -16.2593 16.0921 -39.3229 -46.8643 -117.243 -41.2665 -64.9532 -136.613 62.7156 71.4419 -98.5446 -29.7719 -67.5578 121.249 -40.0724 131.623 53.8193 -10.4006 -68.1259 14.622 3.94893 -82.6964 18.491 32.5001 8.58175 7.26664 32.8416 6.97872 -17.9576 28.3357 18.653 2.05503 28.3357 18.653 98.7544 24.9842 -170.761 120.794 -7.7566 -8.06322 -148.755 -14.3201 -91.7986 14.1043 -12.0695 -49.5268 -151.748 -21.7626 -21.3606 -66.7802 53.1113 44.2774 117.245 49.691 -155.415 -45.1225 10.1058 -30.0479 49.6475 64.1625 -114.855 -98.3847 27.6067 91.389 
-293.455 80.6852 -287.416 43.2864 2.50431 71.064 -162.171 56.8655 80.8088 -53.4548 -5.47371 -10.5994 25.8658 -33.9405 -47.9343 -71.0065 -7.1671 -78.2087 -131.916 64.6819 63.7889 -98.6285 -33.0541 -59.6379 119.087 -40.6481 129.313 52.9198 -8.80403 -62.8717 14.4045 3.70691 -82.957 19.1213 31.9314 7.9142 7.88228 32.2446 6.34448 -17.2958 27.9909 17.8323 2.71685 27.9909 17.8323 103.488 29.277 -172.406 114.973 -14.3259 -3.0935 -133.721 -4.33819 -90.4201 20.4619 -14.3151 -46.6929 -153.642 -22.7742 -22.2244 -64.1018 49.5921 45.4251 107.783 63.4902 -146.573 -37.6362 5.38525 -21.3601 -26.6122 59.7299 -43.6073 -50.0331 43.3828 55.4995 
-295.459 79.6934 -288.566 45.7392 2.02389 70.586 -163.401 59.5666 76.9261 -56.8864 20.732 -7.85907 47.078 -20.198 -24.4061 72.9038 -3.27026 -64.6294 -125.123 66.7624 50.9256 -89.7021 -35.5893 -42.2825 120.924 -37.0867 136.257 53.0404 -8.31899 -59.8898 13.8571 3.37353 -83.3589 19.9537 30.6352 7.03892 8.67848 30.9118 5.54555 -16.3243 27.0216 16.547 3.6884 27.0216 16.547 106.738 31.6129 -178.201 108.29 -20.119 5.60056 -126.278 6.74389 -78.0867 24.3988 -15.3248 -44.3781 -158.16 -25.46 -24.0763 -60.9568 48.9444 50.3678 68.0378 74.9492 -107.59 -21.3453 1.28933 -12.3731 -111.902 -82.1127 -51.8163 -100.758 -23.631 -90.5136 
-297.16 79.5621 -289.571 49.2622 0.997058 70.1107 -166.258 57.1773 74.5357 -54.0234 56.7818 -10.0085 48.8401 -4.85778 12.4752 72.3902 35.6011 0.120662 -124.574 67.1097 41.849 118.672 -6.8894 -161.126 25.9162 -4.03484 2.9635 54.7345 -8.97189 -58.7678 12.733 3.26029 -84.1706 20.1757 28.0158 5.9508 8.83191 28.2479 4.6069 -15.7854 24.8629 14.5884 4.22726 24.8629 14.5884 137.586 49.8279 172.156 94.6727 -44.5037 -14.9967 -120.461 14.2752 -73.0624 26.6748 -14.9283 -41.3732 -157.209 -25.8384 -22.6461 -73.6705 51.9367 58.7348 -14.4321 54.1691 -31.1089 -2.9145 -0.0669813 -5.58834 -52.1366 -60.7867 0.85588 -92.8553 -25.6897 -87.4859 
-298.402 80.5901 -290.373 54.1028 -0.851263 69.873 -171.022 51.1418 75.5325 -47.052 75.7168 -13.6689 46.2864 -3.95753 32.214 60.9665 29.8672 13.237 -138.017 66.3981 49.2279 111.982 26.4872 -165.952 40.9325 27.3504 1.20373 58.452 -11.1298 -59.7782 15.9236 0.49177 -81.9497 26.5385 35.1776 6.17614 15.4226 35.4101 4.39774 -10.7 31.537 17.5511 9.31263 31.537 17.5511 94.2317 16.5549 -147.205 85.1701 -38.2437 -1.12887 -115.183 22.8937 -68.9291 30.433 -14.7799 -37.6642 148.798 -40.0917 -54.4321 95.8061 -9.03541 26.025 -175.585 -52.2057 179.989 -10.1331 0.178318 -8.33187 68.4024 9.87063 -118.713 -120.316 42.503 93.2798 
-299.067 83.1944 -290.98 60.51 -3.78549 70.394 -174.922 41.0818 77.703 -34.9927 82.6739 -17.546 46.8933 -5.19469 37.3444 53.6615 25.1373 20.9477 -158.101 62.789 62.5306 118.862 34.9381 -171.545 42.2554 28.3692 8.59177 65.219 -16.0787 -63.9004 -6.74426 2.66615 -92.5907 23.3905 -14.5648 -1.22285 11.8409 -14.6019 -0.573038 -11.5632 -13.5505 -5.5889 8.44947 -13.5505 -5.58889 110.588 -21.8958 -70.4342 38.8275 29.1019 102.499 -92.7126 45.5975 -92.3598 27.0635 -14.6788 -39.8035 -43.9783 -37.1519 151.191 -59.8356 35.4718 12.2262 16.8343 33.9499 -47.7272 12.5719 0.69483 2.88791 33.6099 19.1901 19.9467 -48.3064 6.97298 -2.57183 
-299.281 87.5004 -291.539 68.7591 -7.87315 72.654 -177.68 26.5286 80.9434 -19.3795 85.7645 -20.2103 47.8586 -8.26887 37.6383 47.5448 14.3962 -9.14218 -175.972 53.3909 74.0072 131.974 46.6456 -177.937 46.125 27.3242 13.9102 71.7793 -28.69 -77.7779 1.08167 3.24372 -89.0846 20.0662 2.55741 1.03304 8.40269 2.6003 0.91991 -14.1807 2.13128 1.75135 5.83192 2.13128 1.75134 119.956 3.04922 -10.5842 38.6326 27.4113 98.9652 -82.9145 46.196 -96.4212 18.6835 -9.74905 -38.7536 -116.557 -47.4637 40.2883 -32.8899 31.4863 10.1907 5.7608 20.952 -40.2367 9.0236 0.956594 6.03241 26.3169 -5.88563 39.2088 -44.4536 -11.0171 -25.0227 
-300.042 92.6628 -292.622 79.2179 -12.774 78.1574 -178.587 6.27099 82.9678 -10.2479 89.2202 -8.87499 48.13 -16.7915 34.1544 45.5137 14.1635 3.78019 176.418 37.9697 81.9069 147.778 60.2527 -178.907 51.3153 17.5983 10.4633 160.771 -32.9354 -31.4307 -1.54288 4.81849 -90.4358 17.2412 -3.26499 -0.317364 5.57433 -3.27576 -0.173227 -16.9896 -3.01862 -1.28476 3.02307 -3.01861 -1.28477 119.957 -10.0355 -31.6697 43.8765 23.4266 93.8261 -84.4479 48.4691 -93.7299 26.4094 -9.93439 -29.1544 -93.8697 -55.9918 74.5251 -32.3472 29.7775 1.59449 6.88454 20.3753 -40.6486 9.92721 0.785046 3.74935 29.5016 5.83075 29.852 -37.8763 -0.942054 -16.6638 
